<?xml version="1.0" standalone="no"?><!DOCTYPE svg PUBLIC "-//W3C//DTD SVG 1.1//EN" "http://www.w3.org/Graphics/SVG/1.1/DTD/svg11.dtd"><svg class="icon" width="200px" height="200.00px" viewBox="0 0 1024 1024" version="1.1" xmlns="http://www.w3.org/2000/svg"><path fill="#333333" d="M170.666667 938.666667c-46.933333 0-85.333333-38.4-85.333334-85.333334V170.666667c0-46.933333 38.4-85.333333 85.333334-85.333334h298.666666v85.333334H192c-12.8 0-21.333333 8.533333-21.333333 21.333333v640c0 12.8 8.533333 21.333333 21.333333 21.333333h640c12.8 0 21.333333-8.533333 21.333333-21.333333V554.666667c0-25.6 17.066667-42.666667 42.666667-42.666667s42.666667 17.066667 42.666667 42.666667v298.666666c0 46.933333-38.4 85.333333-85.333334 85.333334H170.666667z m226.133333-311.466667c-17.066667-17.066667-17.066667-42.666667 0-59.733333L793.6 170.666667H640c-25.6 0-42.666667-17.066667-42.666667-42.666667s17.066667-42.666667 42.666667-42.666667h260.266667c4.266667 0 8.533333 0 12.8 4.266667 4.266667 0 8.533333 4.266667 12.8 8.533333l4.266666 4.266667 8.533334 12.8V384c0 25.6-17.066667 42.666667-42.666667 42.666667s-42.666667-17.066667-42.666667-42.666667V230.4l-396.8 396.8c-8.533333 8.533333-17.066667 12.8-29.866666 12.8-12.8 0-21.333333-4.266667-29.866667-12.8zM469.333333 85.333333c25.6 0 42.666667 17.066667 42.666667 42.666667s-17.066667 42.666667-42.666667 42.666667V85.333333z" /></svg>