<?xml version="1.0" standalone="no"?><!DOCTYPE svg PUBLIC "-//W3C//DTD SVG 1.1//EN" "http://www.w3.org/Graphics/SVG/1.1/DTD/svg11.dtd"><svg class="icon" width="200px" height="200.00px" viewBox="0 0 1024 1024" version="1.1" xmlns="http://www.w3.org/2000/svg"><path fill="#333333" d="M396.202667 746.666667a95.018667 95.018667 0 0 1 100.565333-100.565334h67.029333a95.018667 95.018667 0 0 1 100.565334 100.565334v167.637333h201.130666V418.133333l-335.189333-308.437333L195.029333 418.133333v496.170667h201.173334z m469.333333 234.666666h-234.666667a31.658667 31.658667 0 0 1-33.536-33.536V746.666667a31.658667 31.658667 0 0 0-33.536-33.536h-67.029333a31.658667 31.658667 0 0 0-33.536 33.536v201.130666a31.658667 31.658667 0 0 1-33.536 33.536h-234.666667A68.906667 68.906667 0 0 1 128 907.562667V424.832A76.117333 76.117333 0 0 1 148.096 371.2l335.232-308.437333a64.810667 64.810667 0 0 1 93.866667 0l328.533333 308.437333a60.970667 60.970667 0 0 1 26.837333 53.632v489.472A72.106667 72.106667 0 0 1 865.536 981.333333z" /></svg>