<?xml version="1.0" standalone="no"?><!DOCTYPE svg PUBLIC "-//W3C//DTD SVG 1.1//EN" "http://www.w3.org/Graphics/SVG/1.1/DTD/svg11.dtd"><svg class="icon" width="200px" height="200.00px" viewBox="0 0 1024 1024" version="1.1" xmlns="http://www.w3.org/2000/svg"><path fill="#333333" d="M469.333333 565.674667L563.2 512 469.333333 458.325333v107.349334z m190.208-94.72a48 48 0 0 1 0 82.090666l-203.52 122.794667a47.402667 47.402667 0 0 1-65.28-16.426667A48.042667 48.042667 0 0 1 384 634.794667V389.162667C384 362.752 405.333333 341.333333 431.573333 341.333333c8.618667 0 17.066667 2.346667 24.490667 6.826667l203.52 122.794667zM426.666667 768a42.666667 42.666667 0 0 1 0 85.333333H298.666667a213.333333 213.333333 0 0 1-213.333334-213.333333V384a213.333333 213.333333 0 0 1 213.333334-213.333333h426.666666a213.333333 213.333333 0 0 1 213.333334 213.333333v256a213.333333 213.333333 0 0 1-213.333334 213.333333h-128a42.666667 42.666667 0 0 1 0-85.333333h128a128 128 0 0 0 128-128V384a128 128 0 0 0-128-128H298.666667a128 128 0 0 0-128 128v256a128 128 0 0 0 128 128h128z" /></svg>