<?xml version="1.0" standalone="no"?><!DOCTYPE svg PUBLIC "-//W3C//DTD SVG 1.1//EN" "http://www.w3.org/Graphics/SVG/1.1/DTD/svg11.dtd"><svg class="icon" width="200px" height="200.00px" viewBox="0 0 1024 1024" version="1.1" xmlns="http://www.w3.org/2000/svg"><path fill="#333333" d="M0 512c0-213.333333 170.666667-384 384-384 162.133333 0 307.2 102.4 362.666667 256h21.333333c140.8 0 256 115.2 256 256s-115.2 256-256 256h-128c-25.6 0-42.666667-17.066667-42.666667-42.666667s17.066667-42.666667 42.666667-42.666666h128c93.866667 0 170.666667-76.8 170.666667-170.666667s-76.8-170.666667-170.666667-170.666667h-55.466667c-21.333333 0-34.133333-12.8-42.666666-29.866666C640 307.2 520.533333 213.333333 384 213.333333c-166.4 0-298.666667 132.266667-298.666667 298.666667s132.266667 298.666667 298.666667 298.666667v85.333333c-213.333333 0-384-170.666667-384-384z m384 298.666667c25.6 0 42.666667 17.066667 42.666667 42.666666s-17.066667 42.666667-42.666667 42.666667v-85.333333z m85.333333-42.666667v-281.6l-98.133333 98.133333c-17.066667 17.066667-42.666667 17.066667-59.733333 0-17.066667-17.066667-17.066667-42.666667 0-59.733333l170.666666-170.666667c4.266667-4.266667 4.266667-4.266667 8.533334-4.266666 8.533333-8.533333 12.8-8.533333 21.333333-8.533334 4.266667 0 8.533333 0 12.8 4.266667 4.266667 0 8.533333 4.266667 8.533333 4.266667l170.666667 170.666666c17.066667 17.066667 17.066667 42.666667 0 59.733334-17.066667 17.066667-42.666667 17.066667-59.733333 0L554.666667 486.4V768c0 25.6-17.066667 42.666667-42.666667 42.666667s-42.666667-17.066667-42.666667-42.666667z" /></svg>